<mxfile host="app.diagrams.net" modified="2023-08-10T19:22:16.857Z" agent="Mozilla/5.0 (Windows NT 10.0; Win64; x64) AppleWebKit/537.36 (KHTML, like Gecko) Chrome/115.0.0.0 Safari/537.36 Edg/115.0.1901.200" etag="_PSwlkFdTJXqIc3gOa14" version="21.6.1" type="device">
  <diagram name="Trang-1" id="U_xSyAiw2k2cONw0VGFs">
    <mxGraphModel dx="996" dy="581" grid="1" gridSize="10" guides="1" tooltips="1" connect="1" arrows="1" fold="1" page="1" pageScale="1" pageWidth="827" pageHeight="1169" math="0" shadow="0">
      <root>
        <mxCell id="0" />
        <mxCell id="1" parent="0" />
        <mxCell id="2fnRUKydlYVVhdNxmc88-1" value="Khách hàng" style="shape=umlActor;verticalLabelPosition=bottom;verticalAlign=top;html=1;outlineConnect=0;" vertex="1" parent="1">
          <mxGeometry x="160" y="210" width="30" height="60" as="geometry" />
        </mxCell>
        <mxCell id="2fnRUKydlYVVhdNxmc88-2" value="Bác sĩ" style="shape=umlActor;verticalLabelPosition=bottom;verticalAlign=top;html=1;outlineConnect=0;" vertex="1" parent="1">
          <mxGeometry x="384" y="370" width="26" height="60" as="geometry" />
        </mxCell>
        <mxCell id="2fnRUKydlYVVhdNxmc88-3" value="Đăng nhập" style="ellipse;whiteSpace=wrap;html=1;" vertex="1" parent="1">
          <mxGeometry x="290" y="240" width="120" height="80" as="geometry" />
        </mxCell>
        <mxCell id="2fnRUKydlYVVhdNxmc88-4" value="Admin" style="shape=umlActor;verticalLabelPosition=bottom;verticalAlign=top;html=1;outlineConnect=0;" vertex="1" parent="1">
          <mxGeometry x="600" y="210" width="30" height="60" as="geometry" />
        </mxCell>
        <mxCell id="2fnRUKydlYVVhdNxmc88-6" value="" style="endArrow=classic;html=1;rounded=0;exitX=0.5;exitY=1;exitDx=0;exitDy=0;entryX=0.5;entryY=0;entryDx=0;entryDy=0;entryPerimeter=0;" edge="1" parent="1" source="2fnRUKydlYVVhdNxmc88-3" target="2fnRUKydlYVVhdNxmc88-2">
          <mxGeometry width="50" height="50" relative="1" as="geometry">
            <mxPoint x="390" y="330" as="sourcePoint" />
            <mxPoint x="440" y="280" as="targetPoint" />
          </mxGeometry>
        </mxCell>
        <mxCell id="2fnRUKydlYVVhdNxmc88-7" value="" style="endArrow=classic;html=1;rounded=0;entryX=0.333;entryY=0.667;entryDx=0;entryDy=0;entryPerimeter=0;exitX=1;exitY=0.5;exitDx=0;exitDy=0;" edge="1" parent="1" source="2fnRUKydlYVVhdNxmc88-3" target="2fnRUKydlYVVhdNxmc88-4">
          <mxGeometry width="50" height="50" relative="1" as="geometry">
            <mxPoint x="390" y="330" as="sourcePoint" />
            <mxPoint x="440" y="280" as="targetPoint" />
          </mxGeometry>
        </mxCell>
        <mxCell id="2fnRUKydlYVVhdNxmc88-8" value="" style="endArrow=classic;html=1;rounded=0;entryX=0.5;entryY=0.5;entryDx=0;entryDy=0;entryPerimeter=0;exitX=-0.018;exitY=0.377;exitDx=0;exitDy=0;exitPerimeter=0;" edge="1" parent="1" source="2fnRUKydlYVVhdNxmc88-3" target="2fnRUKydlYVVhdNxmc88-1">
          <mxGeometry width="50" height="50" relative="1" as="geometry">
            <mxPoint x="390" y="330" as="sourcePoint" />
            <mxPoint x="440" y="280" as="targetPoint" />
          </mxGeometry>
        </mxCell>
        <mxCell id="2fnRUKydlYVVhdNxmc88-10" value="Quản lý lịch hẹn" style="ellipse;whiteSpace=wrap;html=1;" vertex="1" parent="1">
          <mxGeometry x="339" y="530" width="120" height="80" as="geometry" />
        </mxCell>
        <mxCell id="2fnRUKydlYVVhdNxmc88-11" value="" style="endArrow=classic;html=1;rounded=0;entryX=0.5;entryY=0;entryDx=0;entryDy=0;" edge="1" parent="1" target="2fnRUKydlYVVhdNxmc88-10">
          <mxGeometry width="50" height="50" relative="1" as="geometry">
            <mxPoint x="400" y="450" as="sourcePoint" />
            <mxPoint x="397" y="520" as="targetPoint" />
          </mxGeometry>
        </mxCell>
        <mxCell id="2fnRUKydlYVVhdNxmc88-12" value="Xác nhận lịch hẹn" style="ellipse;whiteSpace=wrap;html=1;" vertex="1" parent="1">
          <mxGeometry x="160" y="630" width="120" height="80" as="geometry" />
        </mxCell>
        <mxCell id="2fnRUKydlYVVhdNxmc88-13" value="Thay đổi trạng thái" style="ellipse;whiteSpace=wrap;html=1;" vertex="1" parent="1">
          <mxGeometry x="339" y="690" width="120" height="80" as="geometry" />
        </mxCell>
        <mxCell id="2fnRUKydlYVVhdNxmc88-15" value="" style="endArrow=classic;html=1;rounded=0;entryX=0.028;entryY=0.752;entryDx=0;entryDy=0;entryPerimeter=0;" edge="1" parent="1" target="2fnRUKydlYVVhdNxmc88-10">
          <mxGeometry width="50" height="50" relative="1" as="geometry">
            <mxPoint x="260" y="640" as="sourcePoint" />
            <mxPoint x="310" y="590" as="targetPoint" />
          </mxGeometry>
        </mxCell>
        <mxCell id="2fnRUKydlYVVhdNxmc88-18" value="" style="endArrow=classic;html=1;rounded=0;" edge="1" parent="1" source="2fnRUKydlYVVhdNxmc88-13" target="2fnRUKydlYVVhdNxmc88-10">
          <mxGeometry width="50" height="50" relative="1" as="geometry">
            <mxPoint x="390" y="600" as="sourcePoint" />
            <mxPoint x="440" y="550" as="targetPoint" />
          </mxGeometry>
        </mxCell>
        <mxCell id="2fnRUKydlYVVhdNxmc88-19" value="Quản lý chẩn đoán" style="ellipse;whiteSpace=wrap;html=1;" vertex="1" parent="1">
          <mxGeometry x="550" y="520" width="120" height="80" as="geometry" />
        </mxCell>
        <mxCell id="2fnRUKydlYVVhdNxmc88-20" value="" style="endArrow=classic;html=1;rounded=0;entryX=0.403;entryY=-0.037;entryDx=0;entryDy=0;entryPerimeter=0;" edge="1" parent="1" source="2fnRUKydlYVVhdNxmc88-2" target="2fnRUKydlYVVhdNxmc88-19">
          <mxGeometry width="50" height="50" relative="1" as="geometry">
            <mxPoint x="390" y="600" as="sourcePoint" />
            <mxPoint x="440" y="550" as="targetPoint" />
          </mxGeometry>
        </mxCell>
        <mxCell id="2fnRUKydlYVVhdNxmc88-21" value="Tạo chẩn đoán" style="ellipse;whiteSpace=wrap;html=1;" vertex="1" parent="1">
          <mxGeometry x="520" y="680" width="120" height="80" as="geometry" />
        </mxCell>
        <mxCell id="2fnRUKydlYVVhdNxmc88-22" value="Chỉnh sửa chẩn đoán" style="ellipse;whiteSpace=wrap;html=1;" vertex="1" parent="1">
          <mxGeometry x="707" y="460" width="120" height="80" as="geometry" />
        </mxCell>
        <mxCell id="2fnRUKydlYVVhdNxmc88-24" value="" style="endArrow=classic;html=1;rounded=0;entryX=0.5;entryY=1;entryDx=0;entryDy=0;exitX=0.583;exitY=0;exitDx=0;exitDy=0;exitPerimeter=0;" edge="1" parent="1" source="2fnRUKydlYVVhdNxmc88-21" target="2fnRUKydlYVVhdNxmc88-19">
          <mxGeometry width="50" height="50" relative="1" as="geometry">
            <mxPoint x="390" y="600" as="sourcePoint" />
            <mxPoint x="440" y="550" as="targetPoint" />
          </mxGeometry>
        </mxCell>
        <mxCell id="2fnRUKydlYVVhdNxmc88-25" value="" style="endArrow=classic;html=1;rounded=0;entryX=0.983;entryY=0.423;entryDx=0;entryDy=0;entryPerimeter=0;exitX=0;exitY=1;exitDx=0;exitDy=0;" edge="1" parent="1" source="2fnRUKydlYVVhdNxmc88-22" target="2fnRUKydlYVVhdNxmc88-19">
          <mxGeometry width="50" height="50" relative="1" as="geometry">
            <mxPoint x="390" y="600" as="sourcePoint" />
            <mxPoint x="440" y="550" as="targetPoint" />
          </mxGeometry>
        </mxCell>
        <mxCell id="2fnRUKydlYVVhdNxmc88-32" value="" style="endArrow=classic;html=1;rounded=0;exitX=0.5;exitY=0;exitDx=0;exitDy=0;exitPerimeter=0;entryX=1;entryY=0.5;entryDx=0;entryDy=0;" edge="1" parent="1" source="2fnRUKydlYVVhdNxmc88-4" target="2fnRUKydlYVVhdNxmc88-36">
          <mxGeometry width="50" height="50" relative="1" as="geometry">
            <mxPoint x="390" y="50" as="sourcePoint" />
            <mxPoint x="550" y="150" as="targetPoint" />
          </mxGeometry>
        </mxCell>
        <mxCell id="2fnRUKydlYVVhdNxmc88-36" value="Quản lý" style="ellipse;whiteSpace=wrap;html=1;" vertex="1" parent="1">
          <mxGeometry x="420" y="110" width="120" height="80" as="geometry" />
        </mxCell>
        <mxCell id="2fnRUKydlYVVhdNxmc88-37" value="Quản lý lịch hẹn" style="ellipse;whiteSpace=wrap;html=1;" vertex="1" parent="1">
          <mxGeometry x="250" y="140" width="120" height="80" as="geometry" />
        </mxCell>
        <mxCell id="2fnRUKydlYVVhdNxmc88-38" value="Quản lý bác sĩ" style="ellipse;whiteSpace=wrap;html=1;" vertex="1" parent="1">
          <mxGeometry x="290" y="20" width="120" height="80" as="geometry" />
        </mxCell>
        <mxCell id="2fnRUKydlYVVhdNxmc88-39" value="Quản lý khách hàng" style="ellipse;whiteSpace=wrap;html=1;" vertex="1" parent="1">
          <mxGeometry x="560" y="10" width="120" height="80" as="geometry" />
        </mxCell>
        <mxCell id="2fnRUKydlYVVhdNxmc88-40" value="" style="endArrow=classic;html=1;rounded=0;exitX=1;exitY=0;exitDx=0;exitDy=0;" edge="1" parent="1" source="2fnRUKydlYVVhdNxmc88-36">
          <mxGeometry width="50" height="50" relative="1" as="geometry">
            <mxPoint x="540" y="130" as="sourcePoint" />
            <mxPoint x="590" y="80" as="targetPoint" />
          </mxGeometry>
        </mxCell>
        <mxCell id="2fnRUKydlYVVhdNxmc88-41" value="" style="endArrow=classic;html=1;rounded=0;entryX=0.97;entryY=0.823;entryDx=0;entryDy=0;entryPerimeter=0;" edge="1" parent="1" target="2fnRUKydlYVVhdNxmc88-38">
          <mxGeometry width="50" height="50" relative="1" as="geometry">
            <mxPoint x="440" y="120" as="sourcePoint" />
            <mxPoint x="490" y="70" as="targetPoint" />
          </mxGeometry>
        </mxCell>
        <mxCell id="2fnRUKydlYVVhdNxmc88-42" value="" style="endArrow=classic;html=1;rounded=0;entryX=1;entryY=0.5;entryDx=0;entryDy=0;" edge="1" parent="1" source="2fnRUKydlYVVhdNxmc88-36" target="2fnRUKydlYVVhdNxmc88-37">
          <mxGeometry width="50" height="50" relative="1" as="geometry">
            <mxPoint x="390" y="140" as="sourcePoint" />
            <mxPoint x="440" y="90" as="targetPoint" />
          </mxGeometry>
        </mxCell>
      </root>
    </mxGraphModel>
  </diagram>
</mxfile>
